<svg width="58" height="47" viewBox="0 0 58 47" fill="none" xmlns="http://www.w3.org/2000/svg">
<mask id="path-1-inside-1_1_228" fill="white">
<rect x="16.3231" y="0.0909424" width="40.9952" height="26.9638" rx="0.728751"/>
</mask>
<rect x="16.3231" y="0.0909424" width="40.9952" height="26.9638" rx="0.728751" stroke="#B5B7B6" stroke-width="4.37251" mask="url(#path-1-inside-1_1_228)"/>
<path d="M13.3948 10.2935H10.0973C9.6948 10.2935 9.36853 10.6197 9.36853 11.0222V35.4354C9.36853 35.8378 9.6948 36.1641 10.0973 36.1641H48.9029C49.3054 36.1641 49.6317 35.8378 49.6317 35.4354V30.3341" stroke="#B5B7B6" stroke-width="2.18625"/>
<path d="M5.70832 19.0385H2.41076C2.00828 19.0385 1.68201 19.3647 1.68201 19.7672V44.1804C1.68201 44.5828 2.00828 44.9091 2.41076 44.9091H41.2164C41.6189 44.9091 41.9452 44.5828 41.9452 44.1804V39.0791" stroke="#B5B7B6" stroke-width="2.18625"/>
</svg>
